<mxfile host="app.diagrams.net" modified="2023-11-22T12:58:24.636Z" agent="Mozilla/5.0 (X11; Ubuntu; Linux x86_64; rv:109.0) Gecko/20100101 Firefox/119.0" etag="oycOuWAgGp-iQTLWJkuR" version="22.1.3" type="device">
  <diagram id="RrQAFQTPzV2vY8kiekfD" name="Page-1">
    <mxGraphModel dx="1168" dy="795" grid="1" gridSize="10" guides="1" tooltips="1" connect="1" arrows="1" fold="1" page="1" pageScale="1" pageWidth="827" pageHeight="1169" math="0" shadow="0">
      <root>
        <mxCell id="0" />
        <mxCell id="1" parent="0" />
        <mxCell id="gOjxntLg_w5VksE_CyKb-1" value="Admin staff" style="shape=umlLifeline;participant=umlActor;perimeter=lifelinePerimeter;whiteSpace=wrap;html=1;container=1;collapsible=0;recursiveResize=0;verticalAlign=top;spacingTop=36;outlineConnect=0;" parent="1" vertex="1">
          <mxGeometry x="120" y="80" width="20" height="640" as="geometry" />
        </mxCell>
        <mxCell id="gOjxntLg_w5VksE_CyKb-13" value="" style="html=1;points=[];perimeter=orthogonalPerimeter;" parent="gOjxntLg_w5VksE_CyKb-1" vertex="1">
          <mxGeometry x="5" y="390" width="10" height="80" as="geometry" />
        </mxCell>
        <mxCell id="gOjxntLg_w5VksE_CyKb-2" value="GUI" style="shape=umlLifeline;participant=umlBoundary;perimeter=lifelinePerimeter;whiteSpace=wrap;html=1;container=1;collapsible=0;recursiveResize=0;verticalAlign=top;spacingTop=36;outlineConnect=0;" parent="1" vertex="1">
          <mxGeometry x="230" y="80" width="50" height="640" as="geometry" />
        </mxCell>
        <mxCell id="gOjxntLg_w5VksE_CyKb-5" value="" style="html=1;points=[];perimeter=orthogonalPerimeter;" parent="gOjxntLg_w5VksE_CyKb-2" vertex="1">
          <mxGeometry x="20" y="110" width="10" height="280" as="geometry" />
        </mxCell>
        <mxCell id="gOjxntLg_w5VksE_CyKb-18" value="" style="html=1;points=[];perimeter=orthogonalPerimeter;" parent="gOjxntLg_w5VksE_CyKb-2" vertex="1">
          <mxGeometry x="20" y="440" width="10" height="80" as="geometry" />
        </mxCell>
        <mxCell id="gOjxntLg_w5VksE_CyKb-3" value="University" style="shape=umlLifeline;participant=umlEntity;perimeter=lifelinePerimeter;whiteSpace=wrap;html=1;container=1;collapsible=0;recursiveResize=0;verticalAlign=top;spacingTop=36;outlineConnect=0;" parent="1" vertex="1">
          <mxGeometry x="394" y="80" width="40" height="640" as="geometry" />
        </mxCell>
        <mxCell id="gOjxntLg_w5VksE_CyKb-7" value="" style="html=1;points=[];perimeter=orthogonalPerimeter;" parent="gOjxntLg_w5VksE_CyKb-3" vertex="1">
          <mxGeometry x="16" y="180" width="10" height="80" as="geometry" />
        </mxCell>
        <mxCell id="gOjxntLg_w5VksE_CyKb-4" value="foundStudent: Student" style="shape=umlLifeline;participant=umlEntity;perimeter=lifelinePerimeter;whiteSpace=wrap;html=1;container=1;collapsible=0;recursiveResize=0;verticalAlign=top;spacingTop=36;outlineConnect=0;" parent="1" vertex="1">
          <mxGeometry x="570" y="80" width="40" height="640" as="geometry" />
        </mxCell>
        <mxCell id="gOjxntLg_w5VksE_CyKb-10" value="" style="html=1;points=[];perimeter=orthogonalPerimeter;" parent="gOjxntLg_w5VksE_CyKb-4" vertex="1">
          <mxGeometry x="15" y="290" width="10" height="80" as="geometry" />
        </mxCell>
        <mxCell id="gOjxntLg_w5VksE_CyKb-16" value="" style="html=1;points=[];perimeter=orthogonalPerimeter;" parent="gOjxntLg_w5VksE_CyKb-4" vertex="1">
          <mxGeometry x="15" y="465" width="10" height="80" as="geometry" />
        </mxCell>
        <mxCell id="gOjxntLg_w5VksE_CyKb-6" value="Enter student ID" style="html=1;verticalAlign=bottom;startArrow=oval;endArrow=block;startSize=8;rounded=0;" parent="1" source="gOjxntLg_w5VksE_CyKb-1" target="gOjxntLg_w5VksE_CyKb-5" edge="1">
          <mxGeometry x="0.3361" y="10" relative="1" as="geometry">
            <mxPoint x="190" y="200" as="sourcePoint" />
            <Array as="points">
              <mxPoint x="180" y="230" />
            </Array>
            <mxPoint as="offset" />
          </mxGeometry>
        </mxCell>
        <mxCell id="gOjxntLg_w5VksE_CyKb-8" value="findStudentById(id)" style="html=1;verticalAlign=bottom;endArrow=block;entryX=0;entryY=0;rounded=0;" parent="1" source="gOjxntLg_w5VksE_CyKb-5" target="gOjxntLg_w5VksE_CyKb-7" edge="1">
          <mxGeometry relative="1" as="geometry">
            <mxPoint x="340" y="260" as="sourcePoint" />
          </mxGeometry>
        </mxCell>
        <mxCell id="gOjxntLg_w5VksE_CyKb-9" value="foundStudent" style="html=1;verticalAlign=bottom;endArrow=open;dashed=1;endSize=8;exitX=0;exitY=0.95;rounded=0;" parent="1" source="gOjxntLg_w5VksE_CyKb-7" target="gOjxntLg_w5VksE_CyKb-5" edge="1">
          <mxGeometry relative="1" as="geometry">
            <mxPoint x="340" y="336" as="targetPoint" />
          </mxGeometry>
        </mxCell>
        <mxCell id="gOjxntLg_w5VksE_CyKb-11" value="getDetails()*" style="html=1;verticalAlign=bottom;endArrow=block;entryX=0;entryY=0;rounded=0;" parent="1" source="gOjxntLg_w5VksE_CyKb-5" target="gOjxntLg_w5VksE_CyKb-10" edge="1">
          <mxGeometry relative="1" as="geometry">
            <mxPoint x="434" y="370" as="sourcePoint" />
          </mxGeometry>
        </mxCell>
        <mxCell id="gOjxntLg_w5VksE_CyKb-12" value="student details name, course, mark)" style="html=1;verticalAlign=bottom;endArrow=open;dashed=1;endSize=8;exitX=0;exitY=0.95;rounded=0;" parent="1" source="gOjxntLg_w5VksE_CyKb-10" target="gOjxntLg_w5VksE_CyKb-5" edge="1">
          <mxGeometry x="-0.1692" y="-6" relative="1" as="geometry">
            <mxPoint x="434" y="446" as="targetPoint" />
            <mxPoint as="offset" />
          </mxGeometry>
        </mxCell>
        <mxCell id="gOjxntLg_w5VksE_CyKb-14" value="Prompt for new details" style="html=1;verticalAlign=bottom;endArrow=block;entryX=0;entryY=0;rounded=0;" parent="1" source="gOjxntLg_w5VksE_CyKb-5" target="gOjxntLg_w5VksE_CyKb-13" edge="1">
          <mxGeometry relative="1" as="geometry">
            <mxPoint x="250" y="545" as="sourcePoint" />
          </mxGeometry>
        </mxCell>
        <mxCell id="gOjxntLg_w5VksE_CyKb-15" value="new details" style="html=1;verticalAlign=bottom;endArrow=open;dashed=1;endSize=8;exitX=0;exitY=0.95;rounded=0;" parent="1" source="gOjxntLg_w5VksE_CyKb-13" edge="1">
          <mxGeometry relative="1" as="geometry">
            <mxPoint x="250" y="546" as="targetPoint" />
          </mxGeometry>
        </mxCell>
        <mxCell id="gOjxntLg_w5VksE_CyKb-17" value="setDetails(newName, newCourse, newMark)" style="html=1;verticalAlign=bottom;startArrow=oval;endArrow=block;startSize=8;rounded=0;" parent="1" source="gOjxntLg_w5VksE_CyKb-2" target="gOjxntLg_w5VksE_CyKb-16" edge="1">
          <mxGeometry relative="1" as="geometry">
            <mxPoint x="290" y="550" as="sourcePoint" />
          </mxGeometry>
        </mxCell>
        <mxCell id="oiQO6T-NKLOpAvG_Yp4m-1" value="dispatch" style="html=1;verticalAlign=bottom;startArrow=oval;startFill=1;endArrow=block;startSize=8;curved=0;rounded=0;" edge="1" parent="1">
          <mxGeometry width="60" relative="1" as="geometry">
            <mxPoint x="380" y="410" as="sourcePoint" />
            <mxPoint x="440" y="410" as="targetPoint" />
          </mxGeometry>
        </mxCell>
        <mxCell id="oiQO6T-NKLOpAvG_Yp4m-2" value="Confirm to user" style="html=1;verticalAlign=bottom;startArrow=oval;startFill=1;endArrow=block;startSize=8;curved=0;rounded=0;exitX=0.2;exitY=0.763;exitDx=0;exitDy=0;exitPerimeter=0;" edge="1" parent="1" source="gOjxntLg_w5VksE_CyKb-18" target="gOjxntLg_w5VksE_CyKb-1">
          <mxGeometry width="60" relative="1" as="geometry">
            <mxPoint x="160" y="600" as="sourcePoint" />
            <mxPoint x="220" y="600" as="targetPoint" />
            <mxPoint as="offset" />
          </mxGeometry>
        </mxCell>
      </root>
    </mxGraphModel>
  </diagram>
</mxfile>
